<svg xmlns="http://www.w3.org/2000/svg" width="140" height="130" viewBox="0 0 140 130"><path fill="#8CC34B" d="M132.423 56.463a6.485 6.485 0 0 1-6.484 6.484 6.483 6.483 0 0 1 6.484 6.481 6.48 6.48 0 0 1 6.48-6.481 6.482 6.482 0 0 1-6.48-6.484zM41.374 69.506a4.04 4.04 0 0 1-4.04 4.039 4.04 4.04 0 0 1 4.04 4.039 4.038 4.038 0 0 1 4.037-4.039 4.037 4.037 0 0 1-4.037-4.039zM86.33 0a6.088 6.088 0 0 1-6.086 6.086 6.086 6.086 0 0 1 6.086 6.084 6.083 6.083 0 0 1 6.084-6.084A6.084 6.084 0 0 1 86.33 0zM48.881 107.53a4.32 4.32 0 0 1-4.32 4.32 4.32 4.32 0 0 1 4.32 4.322 4.32 4.32 0 0 1 4.32-4.322 4.319 4.319 0 0 1-4.32-4.32z"/><linearGradient id="a" gradientUnits="userSpaceOnUse" x1=".248" y1="68.519" x2="14.115" y2="68.519"><stop offset="0" stop-color="#f79d2a"/><stop offset="1" stop-color="#ffcd2e"/></linearGradient><path fill="url(#a)" d="M7.183 61.585A6.936 6.936 0 0 1 .248 68.52a6.936 6.936 0 0 1 6.935 6.934 6.933 6.933 0 0 1 6.933-6.934 6.933 6.933 0 0 1-6.933-6.935z"/><linearGradient id="b" gradientUnits="userSpaceOnUse" x1="94.738" y1="78.005" x2="103.648" y2="78.005"><stop offset="0" stop-color="#f79d2a"/><stop offset="1" stop-color="#ffcd2e"/></linearGradient><path fill="url(#b)" d="M99.195 73.549a4.458 4.458 0 0 1-4.457 4.457 4.455 4.455 0 0 1 4.457 4.455 4.453 4.453 0 0 1 4.453-4.455 4.456 4.456 0 0 1-4.453-4.457z"/><linearGradient id="c" gradientUnits="userSpaceOnUse" x1="127.488" y1="111.997" x2="140" y2="111.997"><stop offset="0" stop-color="#f79d2a"/><stop offset="1" stop-color="#ffcd2e"/></linearGradient><path fill="url(#c)" d="M133.746 105.741a6.258 6.258 0 0 1-6.258 6.256 6.258 6.258 0 0 1 6.258 6.256 6.254 6.254 0 0 1 6.254-6.256 6.254 6.254 0 0 1-6.254-6.256z"/><linearGradient id="d" gradientUnits="userSpaceOnUse" x1="104.482" y1="19.317" x2="112.242" y2="19.317"><stop offset="0" stop-color="#f79d2a"/><stop offset="1" stop-color="#ffcd2e"/></linearGradient><path fill="url(#d)" d="M108.361 15.438a3.877 3.877 0 0 1-3.879 3.879 3.878 3.878 0 0 1 3.879 3.88 3.879 3.879 0 0 1 3.881-3.88 3.88 3.88 0 0 1-3.881-3.879z"/><linearGradient id="e" gradientUnits="userSpaceOnUse" x1="13.315" y1="110.582" x2="21.35" y2="110.582"><stop offset="0" stop-color="#f79d2a"/><stop offset="1" stop-color="#ffcd2e"/></linearGradient><path fill="url(#e)" d="M17.332 106.565c0 2.219-1.8 4.018-4.018 4.018a4.017 4.017 0 0 1 4.018 4.018 4.016 4.016 0 0 1 4.018-4.018 4.017 4.017 0 0 1-4.018-4.018z"/><linearGradient id="f" gradientUnits="userSpaceOnUse" x1="64.644" y1="125.679" x2="73.287" y2="125.679"><stop offset="0" stop-color="#f79d2a"/><stop offset="1" stop-color="#ffcd2e"/></linearGradient><path fill="url(#f)" d="M68.966 121.358a4.32 4.32 0 0 1-4.321 4.32A4.321 4.321 0 0 1 68.966 130a4.32 4.32 0 0 1 4.321-4.322 4.32 4.32 0 0 1-4.321-4.32z"/><linearGradient id="g" gradientUnits="userSpaceOnUse" y1="16.127" x2="7.982" y2="16.127"><stop offset="0" stop-color="#f79d2a"/><stop offset="1" stop-color="#ffcd2e"/></linearGradient><path fill="url(#g)" d="M3.992 12.136A3.991 3.991 0 0 1 0 16.127a3.992 3.992 0 0 1 3.992 3.991 3.99 3.99 0 0 1 3.99-3.991 3.99 3.99 0 0 1-3.99-3.991z"/><linearGradient id="h" gradientUnits="userSpaceOnUse" x1="60.302" y1="89.1" x2="77.087" y2="89.1"><stop offset="0" stop-color="#76767d"/><stop offset="1" stop-color="#a4a8a8"/></linearGradient><path fill="url(#h)" stroke="#444" stroke-width="2" stroke-miterlimit="10" d="M75.628 85.178H61.76c-.806 0-1.458 1.482-1.458 2.289 0 .805.652 2.287 1.458 2.287h4.647l-5.091.949c-.764.248-1.185.719-.938 1.484.2.617.772.834 1.39.834.147 0 .299-.113.449-.158l13.862-4.541c.682-.221 1.102-1.057.99-1.766-.114-.706-.724-1.378-1.441-1.378z"/><linearGradient id="i" gradientUnits="userSpaceOnUse" x1="60.301" y1="95.53" x2="77.07" y2="95.53"><stop offset="0" stop-color="#76767d"/><stop offset="1" stop-color="#a4a8a8"/></linearGradient><path fill="url(#i)" stroke="#444" stroke-width="2" stroke-miterlimit="10" d="M75.611 95.477h-4.635l5.086-2.299c.766-.246 1.186-1.393.936-2.16-.25-.766-1.068-1.348-1.838-1.1l-13.851 4.414c-.683.225-1.102 1.203-.99 1.912.111.707.724 1.521 1.441 1.521h1.259l2.204 3.434h6.873l2.238-3.434h1.277c.807 0 1.457-.34 1.457-1.145 0-.805-.651-1.143-1.457-1.143z"/><linearGradient id="j" gradientUnits="userSpaceOnUse" x1="49.016" y1="60.078" x2="88.386" y2="60.078"><stop offset="0" stop-color="#f79d2a"/><stop offset="1" stop-color="#ffcd2e"/></linearGradient><path fill="url(#j)" stroke="#515151" stroke-width="2" stroke-miterlimit="10" d="M68.696 36.465c-10.862.013-19.681 8.819-19.681 19.685 0 5.222 2.656 9.73 5.348 13.771 5.945 8.932 2.567 13.77 5.999 13.77h16.69c3.436 0 .049-4.838 5.994-13.77 2.691-4.041 5.34-8.409 5.34-13.627.002-10.869-8.826-19.816-19.69-19.829z"/><path fill="#FFF" d="M77.695 62.196c-.041.105-4.25 10.583-3.914 19.937.02.574-.305 1.061-.721 1.088-.016.004-.027.004-.041.004-.4 0-.738-.434-.756-.99-.281-7.852 2.324-16.135 3.523-19.506h-2.754c-.361 0-.67-.352-.74-.826l-1.053 3.182c-.146.435-.492.682-.831.593-.342-.084-.598-.477-.619-.956l-.086-1.834-.739 2.561c-.136.463-.487.739-.851.637-.356-.094-.614-.522-.614-1.022v-1.937l-.686 2.129c-.145.443-.497.699-.84.601-.346-.09-.601-.501-.612-.984l-.081-3.23-.314.633c-.142.283-.378.458-.63.458H61.69c2.894 7.278 3.35 18.875 3.368 19.401.021.576-.303 1.063-.72 1.092-.415.063-.776-.41-.796-.986-.006-.131-.528-13.426-3.829-19.951a1.361 1.361 0 0 1-.049-1.077c.132-.343.388-.556.672-.556h3.598l1.392-2.822c.184-.372.522-.54.838-.416.316.125.536.512.549.962l.049 1.886.804-2.494c.145-.447.498-.695.851-.602.353.104.602.529.602 1.021v1.435l.526-1.815c.133-.451.479-.718.825-.645.35.078.619.476.638.964l.105 2.304.883-2.67c.141-.422.471-.66.805-.598.334.068.596.431.639.891l.262 2.603h3.338c.268 0 .516.197.652.515.134.305.136.696.003 1.02z"/><path opacity=".3" fill="none" stroke="#FFF" stroke-width="3" stroke-linecap="round" stroke-miterlimit="10" d="M71.291 41.375c-9.589 0-17.365 7.848-17.365 17.528"/><g opacity=".7"><linearGradient id="k" gradientUnits="userSpaceOnUse" x1="62.648" y1="152.042" x2="71.409" y2="152.042" gradientTransform="rotate(30.174 263.833 182.44)"><stop offset="0" stop-color="#76767d"/><stop offset="1" stop-color="#a4a8a8"/></linearGradient><path fill="url(#k)" stroke="#444" stroke-miterlimit="10" d="M113.13 57.296l-6.256-3.638c-.365-.213-1.049.286-1.26.649-.211.364-.307 1.203.059 1.415l2.096 1.22-2.547-.908c-.408-.088-.723.014-.811.425-.072.33.129.578.406.74.068.039.166.027.244.046l7.447 1.588c.367.079.773-.188.91-.536.136-.35.037-.814-.288-1.001z"/><linearGradient id="l" gradientUnits="userSpaceOnUse" x1="62.646" y1="155.399" x2="71.4" y2="155.399" gradientTransform="rotate(30.174 263.833 182.44)"><stop offset="0" stop-color="#76767d"/><stop offset="1" stop-color="#a4a8a8"/></linearGradient><path fill="url(#l)" stroke="#444" stroke-miterlimit="10" d="M110.421 61.938l-2.09-1.215 2.896.297c.41.089.9-.317.99-.729.086-.411-.131-.89-.541-.979l-7.41-1.642c-.365-.078-.813.253-.947.602s-.072.878.252 1.065l.566.33.094 2.127 3.102 1.804 1.91-.962.576.334c.365.212.748.229.959-.135.212-.361.007-.686-.357-.897z"/><linearGradient id="m" gradientUnits="userSpaceOnUse" x1="56.755" y1="136.893" x2="77.306" y2="136.893" gradientTransform="rotate(30.174 263.833 182.44)"><stop offset="0" stop-color="#f79d2a"/><stop offset="1" stop-color="#ffcd2e"/></linearGradient><path fill="url(#m)" stroke="#515151" stroke-width="2" stroke-miterlimit="10" d="M122.781 33.496c-4.904-2.844-11.193-1.183-14.043 3.719-1.369 2.356-1.354 5.089-1.199 7.618.34 5.589-2.455 6.886-.904 7.787l3.756 2.184 3.773 2.193c1.551.901 1.291-2.171 6.316-4.64 2.275-1.117 4.617-2.393 5.986-4.749 2.852-4.903 1.215-11.256-3.685-14.112z"/><path fill="#FFF" d="M120.093 47.468c-.047.036-4.693 3.661-6.998 7.97-.141.265-.416.397-.611.302-.008-.002-.012-.005-.018-.009-.182-.105-.219-.391-.082-.646 1.934-3.616 5.281-6.671 6.707-7.877l-1.242-.723c-.162-.095-.211-.335-.117-.566l-1.311 1.158c-.18.158-.4.179-.529.051-.133-.129-.145-.373-.029-.596l.443-.849-1.006.962c-.184.174-.414.205-.551.063-.137-.136-.141-.396-.01-.621l.508-.874-.867.781c-.182.161-.408.184-.535.051-.133-.132-.141-.384-.02-.604l.813-1.479-.311.203c-.137.091-.291.108-.404.042l-1.193-.694c-.604 4.043-3.439 9.396-3.57 9.638-.143.266-.414.399-.611.304-.203-.081-.242-.39-.1-.653.031-.061 3.283-6.197 3.506-10.008a.717.717 0 0 1 .26-.498c.15-.12.322-.149.449-.075l1.623.944 1.369-.909c.18-.119.377-.107.486.032.109.139.109.372-.004.578l-.473.864 1.018-.915c.182-.164.408-.184.543-.049.131.14.131.397.002.618l-.377.647.713-.682c.18-.168.406-.197.543-.073.137.127.154.376.035.602l-.557 1.066 1.098-.973c.176-.152.387-.174.521-.058.133.118.156.352.053.569l-.564 1.243 1.508.875c.119.07.18.225.158.404a.71.71 0 0 1-.266.464z"/><path opacity=".3" fill="none" stroke="#FFF" stroke-width="3" stroke-linecap="round" stroke-miterlimit="10" d="M122.666 36.393c-4.328-2.516-9.895-1.015-12.436 3.354"/></g><g opacity=".7"><linearGradient id="n" gradientUnits="userSpaceOnUse" x1="299.252" y1="64.735" x2="305.46" y2="64.735" gradientTransform="rotate(-73.709 188.92 258.727)"><stop offset="0" stop-color="#76767d"/><stop offset="1" stop-color="#a4a8a8"/></linearGradient><path fill="url(#n)" stroke="#444" stroke-miterlimit="10" d="M33.862 92.555l-1.439 4.924c-.084.287.376.672.661.754.287.086.88.008.964-.279l.483-1.65-.192 1.908c.009.297.132.494.43.484.24-.006.376-.188.441-.404.015-.055-.011-.119-.011-.176l-.174-5.395c-.007-.266-.26-.502-.524-.535-.263-.033-.564.115-.639.369z"/><linearGradient id="o" gradientUnits="userSpaceOnUse" x1="299.25" y1="67.114" x2="305.454" y2="67.114" gradientTransform="rotate(-73.709 188.92 258.727)"><stop offset="0" stop-color="#76767d"/><stop offset="1" stop-color="#a4a8a8"/></linearGradient><path fill="url(#o)" stroke="#444" stroke-miterlimit="10" d="M37.516 93.629l-.479 1.646-.289-2.043c-.008-.299-.372-.566-.668-.559-.3.01-.591.24-.581.539l.13 5.377c.007.264.312.516.574.549.264.033.615-.1.69-.354l.131-.447 1.447-.426.715-2.441-.988-1.15.132-.453c.084-.285.031-.553-.254-.637-.288-.083-.475.114-.56.399z"/><linearGradient id="p" gradientUnits="userSpaceOnUse" x1="295.077" y1="53.998" x2="309.64" y2="53.998" gradientTransform="rotate(-73.709 188.92 258.727)"><stop offset="0" stop-color="#f79d2a"/><stop offset="1" stop-color="#ffcd2e"/></linearGradient><path fill="url(#p)" stroke="#515151" stroke-width="2" stroke-miterlimit="10" d="M15.847 89.963c-1.122 3.857 1.09 7.902 4.947 9.027 1.854.543 3.73.066 5.444-.469 3.787-1.184 5.155.52 5.511-.701l.864-2.955.868-2.969c.357-1.221-1.714-.521-4.266-3.559-1.156-1.375-2.433-2.77-4.285-3.311-3.858-1.127-7.951 1.08-9.083 4.937z"/><path fill="#FFF" d="M25.917 89.438c.032.025 3.317 2.605 6.673 3.459.206.051.345.217.313.367a.046.046 0 0 1-.004.016c-.042.143-.23.215-.431.164-2.815-.715-5.487-2.5-6.56-3.273l-.285.977c-.038.129-.195.203-.37.178l1.02.703c.14.098.191.246.125.357-.067.113-.232.164-.404.119l-.659-.158.833.527c.149.096.211.25.137.369-.071.117-.25.164-.426.111l-.688-.201.686.467c.142.094.194.246.126.357-.068.113-.24.162-.413.115l-1.156-.305.193.178c.086.078.124.182.097.27l-.274.939c2.884-.271 7.049.77 7.237.818.206.053.347.217.313.369-.022.152-.228.232-.434.178-.046-.01-4.821-1.203-7.481-.709a.515.515 0 0 1-.387-.094c-.107-.082-.156-.197-.127-.297l.372-1.277-.856-.787c-.113-.104-.139-.24-.062-.34.077-.098.238-.137.398-.096l.676.178-.803-.545c-.145-.096-.195-.248-.125-.363.073-.113.249-.16.423-.107l.511.148-.59-.373c-.146-.096-.205-.246-.143-.361.063-.117.231-.17.408-.127l.828.201-.857-.59c-.134-.094-.186-.234-.127-.348.058-.111.214-.168.382-.133l.95.176.347-1.186c.026-.094.123-.164.251-.178a.504.504 0 0 1 .363.107z"/><path opacity=".3" fill="none" stroke="#FFF" stroke-width="3" stroke-linecap="round" stroke-miterlimit="10" d="M17.86 89.549c-.996 3.404.984 6.98 4.421 7.986"/></g><linearGradient id="q" gradientUnits="userSpaceOnUse" x1="41.44" y1="291.732" x2="53.11" y2="291.732" gradientTransform="rotate(90 191.904 168.53)"><stop offset="0" stop-color="#f79d2a"/><stop offset="1" stop-color="#ffcd2e"/></linearGradient><path opacity=".5" fill="url(#q)" d="M68.701 29.735a1.28 1.28 0 0 1-1.279-1.28v-9.109a1.279 1.279 0 1 1 2.559 0v9.109a1.28 1.28 0 0 1-1.28 1.28z"/><linearGradient id="r" gradientUnits="userSpaceOnUse" x1="37.701" y1="258.447" x2="49.37" y2="258.447" gradientTransform="rotate(124.897 123.613 155.15)"><stop offset="0" stop-color="#f79d2a"/><stop offset="1" stop-color="#ffcd2e"/></linearGradient><path opacity=".5" fill="url(#r)" d="M81.361 35.16a1.279 1.279 0 0 1-.316-1.782l5.211-7.472a1.277 1.277 0 0 1 1.781-.317c.58.404.723 1.202.316 1.781l-5.209 7.473a1.283 1.283 0 0 1-1.783.317z"/><linearGradient id="s" gradientUnits="userSpaceOnUse" x1="22.754" y1="237.53" x2="34.422" y2="237.53" gradientTransform="rotate(152.325 85.908 147.184)"><stop offset="0" stop-color="#f79d2a"/><stop offset="1" stop-color="#ffcd2e"/></linearGradient><path opacity=".5" fill="url(#s)" d="M89.539 43.259a1.28 1.28 0 0 1 .537-1.729l8.068-4.23a1.28 1.28 0 0 1 1.729.539 1.277 1.277 0 0 1-.541 1.727l-8.064 4.233a1.282 1.282 0 0 1-1.729-.54z"/><linearGradient id="t" gradientUnits="userSpaceOnUse" x1="48.201" y1="273.503" x2="59.871" y2="273.503" gradientTransform="scale(1 -1) rotate(-55.104 -238.002 123.119)"><stop offset="0" stop-color="#f79d2a"/><stop offset="1" stop-color="#ffcd2e"/></linearGradient><path opacity=".5" fill="url(#t)" d="M55.755 35.16a1.28 1.28 0 0 0 .318-1.782l-5.212-7.472a1.28 1.28 0 0 0-1.783-.317 1.278 1.278 0 0 0-.316 1.781l5.211 7.473a1.282 1.282 0 0 0 1.782.317z"/><linearGradient id="u" gradientUnits="userSpaceOnUse" x1="38.963" y1="246.032" x2="50.631" y2="246.032" gradientTransform="scale(1 -1) rotate(-27.677 -538.103 107.695)"><stop offset="0" stop-color="#f79d2a"/><stop offset="1" stop-color="#ffcd2e"/></linearGradient><path opacity=".5" fill="url(#u)" d="M47.525 43.259a1.281 1.281 0 0 0-.538-1.729L38.92 37.3a1.28 1.28 0 0 0-1.729.539 1.278 1.278 0 0 0 .539 1.727l8.066 4.233a1.282 1.282 0 0 0 1.729-.54z"/><path fill="#E8E8E8" stroke="#444" stroke-width="2" stroke-miterlimit="10" d="M84.835 118.928l11.346-26.977s20.242 5.607 28.803-5.539c.432-.561-.586 3.34-.586 3.34l-9.191 24.885s-3.582 13.047-30.221 3.936"/><linearGradient id="v" gradientUnits="userSpaceOnUse" x1="63.123" y1="209.657" x2="84.234" y2="209.657" gradientTransform="rotate(20.544 385.299 245.748)"><stop offset="0" stop-color="#f79d2a"/><stop offset="1" stop-color="#ffcd2e"/></linearGradient><path fill="none" stroke="url(#v)" stroke-width="3" stroke-linecap="round" stroke-miterlimit="10" d="M115.812 102.635s-6.506 3.209-19.295-.125"/><linearGradient id="w" gradientUnits="userSpaceOnUse" x1="70.832" y1="201.099" x2="90.728" y2="201.099" gradientTransform="rotate(16.784 414.5 241.847)"><stop offset="0" stop-color="#56af5e"/><stop offset="1" stop-color="#c1d24d"/></linearGradient><path fill="none" stroke="url(#w)" stroke-width="3" stroke-linecap="round" stroke-miterlimit="10" d="M115.783 105.813s-5.055 3.775-18.037 1.289"/><linearGradient id="x" gradientUnits="userSpaceOnUse" x1="70.866" y1="205.369" x2="90.528" y2="205.369" gradientTransform="rotate(16.784 414.5 241.847)"><stop offset="0" stop-color="#56af5e"/><stop offset="1" stop-color="#c1d24d"/></linearGradient><path fill="none" stroke="url(#x)" stroke-width="3" stroke-linecap="round" stroke-miterlimit="10" d="M114.32 109.969s-3.816 3.674-17.736 1.104"/><linearGradient id="y" gradientUnits="userSpaceOnUse" x1="60.787" y1="229.61" x2="84.023" y2="229.61" gradientTransform="rotate(22.731 374.863 247.053)"><stop offset="0" stop-color="#f79d2a"/><stop offset="1" stop-color="#ffcd2e"/></linearGradient><path fill="none" stroke="url(#y)" stroke-width="3" stroke-linecap="round" stroke-miterlimit="10" d="M113.482 114.379s-6.711 3.512-21.695-.582"/><path fill="#434347" d="M94.13 96.182l2.051-4.23s20.242 5.607 28.803-5.539c.432-.561-.586 3.34-.586 3.34s-1.352 14.199-29.938 6.764"/><linearGradient id="z" gradientUnits="userSpaceOnUse" x1="223.88" y1="64.399" x2="261.675" y2="64.399" gradientTransform="rotate(-44.988 219.845 230.122)"><stop offset=".124" stop-color="#9ca5aa"/><stop offset="1" stop-color="#cfd7db"/></linearGradient><path fill="url(#z)" stroke="#565656" stroke-width="2" stroke-miterlimit="10" d="M127.488 83.116c-.082-5.096-2.975-7.527-2.975-7.527s-13.365 31.719-13.26 31.832c4.549 5.063 2.053 10.41 2.053 10.41l14.182-34.715z"/><ellipse transform="rotate(25.12 97.634 94.464)" fill="#EC4643" cx="97.641" cy="94.476" rx=".95" ry="1.038"/><path fill="#FFCD2E" d="M101.046 95.288c-.201.535-.762.818-1.252.635-.494-.182-.729-.766-.529-1.301.201-.537.764-.824 1.254-.637.49.182.729.767.527 1.303z"/><ellipse transform="rotate(18.933 102.641 95.453)" fill="#C2E046" cx="102.635" cy="95.436" rx=".951" ry="1.037"/><path fill="#E8E8E8" stroke="#444" stroke-width="2" stroke-miterlimit="10" d="M42.474 1.138l-.858 29.055s-20.762 2.049-24.704 15.439c-.201.676-.653-3.301-.653-3.301l-.391-26.349S14.519 2.614 42.462 1.521"/><linearGradient id="A" gradientUnits="userSpaceOnUse" x1="239.214" y1="372.321" x2="258.443" y2="372.321" gradientTransform="rotate(171.189 152.368 192.403)"><stop offset="0" stop-color="#f79d2a"/><stop offset="1" stop-color="#ffcd2e"/></linearGradient><path fill="none" stroke="url(#A)" stroke-width="3" stroke-linecap="round" stroke-miterlimit="10" d="M21.866 33.104s2.572-4.111 15.268-7.45"/><linearGradient id="B" gradientUnits="userSpaceOnUse" x1="19.602" y1="24.997" x2="36.221" y2="24.997"><stop offset="0" stop-color="#56af5e"/><stop offset="1" stop-color="#c1d24d"/></linearGradient><path fill="none" stroke="url(#B)" stroke-width="3" stroke-linecap="round" stroke-miterlimit="10" d="M21.103 28.996s1.17-3.828 13.618-7.998"/><linearGradient id="C" gradientUnits="userSpaceOnUse" x1="18.845" y1="20.59" x2="36.476" y2="20.59"><stop offset="0" stop-color="#56af5e"/><stop offset="1" stop-color="#c1d24d"/></linearGradient><path fill="none" stroke="url(#C)" stroke-width="3" stroke-linecap="round" stroke-miterlimit="10" d="M20.345 24.54s6.055-6.603 14.631-7.9"/><linearGradient id="D" gradientUnits="userSpaceOnUse" x1="241.101" y1="386.334" x2="263.431" y2="386.334" gradientTransform="rotate(173.379 150.918 194.69)"><stop offset="0" stop-color="#f79d2a"/><stop offset="1" stop-color="#ffcd2e"/></linearGradient><path fill="none" stroke="url(#D)" stroke-width="3" stroke-linecap="round" stroke-miterlimit="10" d="M18.925 20.316s8.095-7.738 18.463-8.587"/><path fill="#434347" d="M42.001 1.326l-.34 6.468s-20.808.234-24.75 13.626c-.201.675-.653-3.303-.653-3.303s-3.83-13.64 25.318-16.979"/><linearGradient id="E" gradientUnits="userSpaceOnUse" x1="172.552" y1="304.108" x2="207.546" y2="304.108" gradientTransform="rotate(113.891 191.82 113.872)"><stop offset=".124" stop-color="#9ca5aa"/><stop offset="1" stop-color="#cfd7db"/></linearGradient><path fill="url(#E)" stroke="#565656" stroke-width="2" stroke-miterlimit="10" d="M15.771 49.586c1.898 4.69 5.447 5.908 5.447 5.908s1.033-34.173.896-34.241c-6.026-3.061-6.122-6.339-6.122-6.339l-.221 34.672z"/></svg>