<svg xmlns="http://www.w3.org/2000/svg" width="30" height="29.263" viewBox="0 0 30 29.263"><path fill="#2B2B2B" d="M19.746 29.238c-.762.137-1.016-.332-1.016-.723v-4.121c0-1.406-.469-2.305-1.016-2.773 3.34-.371 6.855-1.641 6.855-7.402 0-1.641-.586-2.988-1.543-4.023.156-.391.664-1.914-.156-3.984-1.25-.391-4.121 1.543-4.121 1.543a14.066 14.066 0 0 0-7.499-.001S8.379 5.82 7.109 6.211c-.801 2.07-.293 3.594-.137 3.984-.956 1.035-1.542 2.383-1.542 4.024 0 5.742 3.496 7.031 6.836 7.402-.43.391-.82 1.035-.957 2.012-.859.391-3.047 1.055-4.355-1.25-.82-1.426-2.305-1.543-2.305-1.543-1.465-.02-.098.918-.098.918.977.449 1.66 2.188 1.66 2.188.879 2.676 5.059 1.777 5.059 1.777 0 1.25.02 2.441.02 2.793 0 .391-.273.859-1.035.723C4.297 27.246 0 21.621 0 15 0 6.719 6.719 0 15 0s15 6.719 15 15c0 6.621-4.297 12.246-10.254 14.238z"/></svg>