<svg xmlns="http://www.w3.org/2000/svg" width="140" height="138.526" viewBox="0 0 140 138.526"><path fill="#8CC34B" d="M83.081 0c0 3.513-2.85 6.36-6.361 6.36a6.36 6.36 0 0 1 6.361 6.358 6.356 6.356 0 0 1 6.357-6.358A6.357 6.357 0 0 1 83.081 0zM9.117 95.573a6.36 6.36 0 0 1-6.36 6.359 6.36 6.36 0 0 1 6.36 6.359 6.357 6.357 0 0 1 6.357-6.359 6.357 6.357 0 0 1-6.357-6.359zm22.315-61.995a4.514 4.514 0 0 1-4.515 4.515 4.516 4.516 0 0 1 4.515 4.517 4.516 4.516 0 0 1 4.515-4.517 4.514 4.514 0 0 1-4.515-4.515zm35.374 83.315a4.514 4.514 0 0 1-4.515 4.514 4.516 4.516 0 0 1 4.515 4.518 4.516 4.516 0 0 1 4.515-4.518 4.514 4.514 0 0 1-4.515-4.514zm68.679-12.635a4.513 4.513 0 0 1-4.514 4.514 4.516 4.516 0 0 1 4.514 4.518 4.516 4.516 0 0 1 4.516-4.518 4.514 4.514 0 0 1-4.516-4.514z"/><linearGradient id="a" gradientUnits="userSpaceOnUse" x1="120.993" y1="66.724" x2="135.485" y2="66.724"><stop offset="0" stop-color="#f79d2a"/><stop offset="1" stop-color="#ffcd2e"/></linearGradient><path fill="url(#a)" d="M128.241 59.478a7.25 7.25 0 0 1-7.248 7.248c4 0 7.248 3.244 7.248 7.246a7.244 7.244 0 0 1 7.244-7.246 7.246 7.246 0 0 1-7.244-7.248z"/><linearGradient id="b" gradientUnits="userSpaceOnUse" x1="35.946" y1="6.359" x2="44.056" y2="6.359"><stop offset="0" stop-color="#f79d2a"/><stop offset="1" stop-color="#ffcd2e"/></linearGradient><path fill="url(#b)" d="M40 2.305a4.053 4.053 0 0 1-4.054 4.054A4.054 4.054 0 0 1 40 10.415a4.055 4.055 0 0 1 4.056-4.056A4.054 4.054 0 0 1 40 2.305z"/><linearGradient id="c" gradientUnits="userSpaceOnUse" y1="31.375" x2="14.363" y2="31.375"><stop offset="0" stop-color="#f79d2a"/><stop offset="1" stop-color="#ffcd2e"/></linearGradient><path fill="url(#c)" d="M7.181 24.192A7.18 7.18 0 0 1 0 31.373a7.183 7.183 0 0 1 7.181 7.184 7.182 7.182 0 0 1 7.183-7.184 7.18 7.18 0 0 1-7.183-7.181z"/><linearGradient id="d" gradientUnits="userSpaceOnUse" x1="93.932" y1="131.344" x2="108.295" y2="131.344"><stop offset="0" stop-color="#f79d2a"/><stop offset="1" stop-color="#ffcd2e"/></linearGradient><path fill="url(#d)" d="M101.114 124.163a7.183 7.183 0 0 1-7.182 7.182 7.184 7.184 0 0 1 7.182 7.182 7.181 7.181 0 0 1 7.182-7.182 7.181 7.181 0 0 1-7.182-7.182z"/><linearGradient id="e" gradientUnits="userSpaceOnUse" x1="47.881" y1="58.098" x2="92.648" y2="58.098"><stop offset="0" stop-color="#f79d2a"/><stop offset="1" stop-color="#ffcd2e"/></linearGradient><path fill="url(#e)" stroke="#515151" stroke-width="2" stroke-miterlimit="10" d="M92.45 82.727c.445-3.342 0-5.535 0-5.535v-28.31c-.676-.204-1.375-.345-2.115-.345-2.154 0-4.076.935-5.426 2.405V32.909a5.03 5.03 0 0 0-5.029-5.03c-1.512 0-2.852.681-3.773 1.735v-2.74a5.029 5.029 0 0 0-10.057 0v3.196a5.016 5.016 0 0 0-4.147-2.191 5.029 5.029 0 0 0-5.03 5.03v6.663c-.922-1.142-2.315-1.888-3.896-1.888a5.028 5.028 0 0 0-5.029 5.03v34.477c-.755 15.652 5.374 17.16 5.374 17.16h34.375c2.936-4.068 4.178-7.971 4.666-11.029h.09v-.595z"/><path fill="none" stroke="#515151" stroke-width="2" stroke-linecap="round" stroke-miterlimit="10" d="M92.588 83.323V48.882c-.674-.204-1.375-.345-2.113-.345a7.394 7.394 0 0 0-7.396 7.396v12.994"/><path fill="none" stroke="#515151" stroke-linecap="round" stroke-miterlimit="10" d="M67.488 94.352a28.015 28.015 0 0 1-.099-2.313c0-12.279 8.253-22.234 18.433-22.234"/><path fill="none" stroke="#515151" stroke-width="2" stroke-linecap="round" stroke-miterlimit="10" d="M56.887 38.094V60.13m9.258-30.161V60.13m10.023-31.057V60.13"/><path fill="none" stroke="#515151" stroke-linecap="round" stroke-miterlimit="10" d="M80.083 35.799h-3.915m3.915 12.07h-3.915m-6.111-15.337h-3.912m-5.344 5.153h-3.914m3.914 12.698h-3.914m-5.094-2.514H47.88m3.913 7.794H47.88m22.177-9.334h-3.912"/><path fill="none" d="M81.204 59.16c-.629.082-4.074.439-8.967 1.891a54.646 54.646 0 0 0-8.242 3.195c-2.921 1.499-6.025 3.332-8.627 5.704-2.697 2.279-4.768 4.994-6.267 7.561-1.393 2.57-2.301 5.029-2.662 7.021-.562 2.07-.505 3.609-.593 4.74-.047 1.121-.071 1.76-.071 1.76l25.481-1.984.064-.797c.057-.492-.031-1.281.236-1.986a7.115 7.115 0 0 1 2.422-4.211c.611-.629 1.596-1.158 2.561-1.689 1.045-.488 2.16-.932 3.211-1.234 2.094-.629 3.578-.752 2.934-.688l-1.48-19.283z"/><path fill="#FFF" d="M72.793 70.151l-.865.328c-.551.217-1.301.582-2.216.994-1.769.904-4.111 2.213-5.957 3.92-1.965 1.631-3.321 3.594-4.203 5.076-.466.736-.642 1.396-.86 1.84l-.299.703 2.452.385.268-.633c.199-.395.348-1 .771-1.65.79-1.32 1.984-3.064 3.732-4.508 1.632-1.52 3.744-2.697 5.344-3.518.838-.371 1.52-.707 2.02-.906l.797-.299-.984-1.732zm7.356-2.059l.387 1.897s-.246.043-.617.113c-.371.078-.861.188-1.357.293-.971.254-1.943.514-1.943.514l-.73-1.816s1.055-.283 2.111-.555l1.471-.319c.406-.075.678-.127.678-.127zM57.688 85.491l2.517.158-.111.475c-.066.286-.175.666-.167 1.053-.04.77-.082 1.539-.082 1.539l-2.548.104s.047-.83.092-1.662c-.006-.416.109-.832.181-1.145.074-.315.118-.522.118-.522z"/><path fill="none" d="M46.394 72.272c.353.23 2.22 1.561 5.403 2.766 1.593.611 3.557 1.16 5.796 1.49 2.261.268 4.798.373 7.399-.141 2.594-.4 5.133-1.408 7.311-2.57 2.129-1.213 3.959-2.568 5.262-3.84 1.445-1.237 2.289-2.372 2.975-3.149.652-.788 1.027-1.236 1.027-1.236l-13.442-10.31s-.174.2-.482.545c-.305.332-.709.94-1.237 1.324-1.038 1.013-2.245 1.717-3.558 1.925-.65.171-1.426.1-2.192.042-.782-.133-1.572-.325-2.251-.591-1.372-.51-2.158-1.106-1.809-.855l-10.202 14.6z"/><path fill="#FFF" d="M56.684 68.212s.221.061.604.163c.389.098.959.178 1.632.304 1.369.165 3.243.298 5.101-.084 1.873-.27 3.641-1.063 4.905-1.727.644-.315 1.103-.717 1.46-.93.343-.238.541-.372.541-.372l-.967-1.406s-.178.119-.489.332c-.319.192-.733.56-1.306.837-1.13.587-2.694 1.296-4.357 1.532-1.648.347-3.336.222-4.573.078-.616-.118-1.134-.19-1.489-.277a78.053 78.053 0 0 1-.554-.152l-.508 1.702zm-4.721-1.9l.886-1.549s.145.084.362.204l.821.412c.612.267 1.23.526 1.23.526l-.674 1.646s-.67-.279-1.335-.573c-.323-.16-.65-.323-.892-.446-.238-.134-.398-.22-.398-.22zm20.707-2.209l-1.127-1.274.322-.292c.195-.175.463-.398.678-.682l.91-1.077 1.291 1.101-.984 1.158c-.232.303-.523.551-.738.742l-.352.324z"/><path fill="none" d="M75.958 56.919l-3.895 1.952a436.112 436.112 0 0 1-8.656 4.175c-3.14 1.468-6.294 2.869-8.506 3.736l-1.441.539-.917.3c-.209.032-.209.066-.228.07l2.596 15.92.577-.121c.355-.08.969-.215 1.575-.387.487-.156 1.079-.35 1.757-.568.588-.221 1.251-.469 1.974-.738 2.765-1.086 6.12-2.588 9.437-4.135a453.674 453.674 0 0 0 8.995-4.338l4.066-2.039-7.334-14.366z"/><path fill="#FFF" d="M73.395 66.313s-3.439 1.693-6.91 3.313c-3.464 1.639-6.979 3.122-6.979 3.122l.625 1.488s3.559-1.504 7.036-3.148c3.487-1.627 6.936-3.326 6.936-3.326l-.708-1.449zm4.811-2.405l.726 1.442-2.752 1.374-.717-1.445zm-20.807 9.68l.585 1.504-1.46.547-1.503.492-.451-1.549 1.413-.465c.708-.263 1.416-.529 1.416-.529z"/><g fill="#FFF" stroke="#FFF" stroke-width="6" stroke-miterlimit="10"><path d="M40.578 86.956a207.206 207.206 0 0 0-1.919 12.637c1.383-1.381 3.712-3.316 6.049-3.639 3.673-.506 4.78 1.68 4.228 5.074-.463 2.828-2.397 9.473-.083 8.984 1.324-.268 3.202-2.992 4.026-5.656.213-.625 2.126.301 1.933.754-1.335 3.586-3.767 8.172-8.436 9.154-4.216.879-5.224-1.492-5.233-4.041 0-2.17.785-6.658.933-7.443.226-1.137.028-1.961-1.124-1.674-.781.191-1.936 1.074-2.848 2.176-.546 4.371-1.031 8.266-1.377 11.629-.082.947-7.227 2.484-6.984.535 1.126-9.127 2.966-21.711 4.063-28.58 1.321-1.203 6.677-1.217 6.772.09z"/><path d="M69.32 100.221c-1.012 3.16-4.65 5.148-9.464 5.088.513 2.182 2.355 2.908 5.367 2.535 2.384-.285 5.96-1.797 7.562-6.227.211-.625 2.125.301 1.969.707-2.441 6.373-6.16 9.012-11.256 9.67-7.227.951-10.412-2.736-10.604-7.217-.256-5.875 3.879-10.441 9.941-11.189 5.438-.664 7.785 3.096 6.485 6.633zm-9.623 2.389c2.433-.25 3.669-2.078 3.861-3.467.136-.867-.124-1.514-.761-1.512-1.53-.002-2.846 2.18-3.1 4.979z"/><path d="M88.977 86.717c-.338 5.574-3.902 10.275-10.016 12.818-.373 4.09.736 6.275 3.586 5.969 1.924-.223 4.867-1.393 6.592-6.18.182-.535 2.01.402 1.891.76-1.826 4.973-4.309 9.184-10.607 9.453-6.508.301-8.039-5.271-7.473-13.514.432-6.141 2.357-12.23 5.977-14.982 4.234-3.218 10.474-1.142 10.05 5.676zm-8.441 2.012c-.438 2.059-1.061 4.951-1.328 7.029 1.877-1.193 3.4-4.338 4.004-6.76.613-2.637.563-5.18-.48-5.035-.878.12-1.61 2.219-2.196 4.766z"/><path d="M105.252 84.479c-.338 5.574-3.902 10.273-10.016 12.816-.373 4.09.736 6.277 3.586 5.971 1.924-.223 4.867-1.395 6.592-6.18.182-.535 2.01.402 1.891.76-1.826 4.971-4.309 9.184-10.607 9.453-6.508.301-8.039-5.273-7.473-13.516.432-6.141 2.357-12.229 5.977-14.98 4.234-3.22 10.474-1.142 10.05 5.676zm-8.441 2.01c-.438 2.059-1.061 4.953-1.328 7.031 1.877-1.195 3.4-4.338 4.004-6.76.613-2.637.563-5.182-.48-5.037-.878.121-1.608 2.221-2.196 4.766z"/><path d="M122.52 99.03c1.996-.021 4.143-1.719 5.184-4.967.213-.625 2.119.26 1.934.754-2.152 5.994-5.891 6.637-8.9 6.709-1.852 1.998-4.365 3.195-7.162 3.58-4.924.678-8.893-1.285-8.209-8.354.588-6.246 4.938-9.865 10.078-10.529 7.813-.99 10.016 6.063 7.075 12.807zm-10.242-3.358c-.328 2.555-.691 5.795 1.73 5.461.541-.074 1.049-.398 1.408-.875-.84-1.158-.162-3.037 1.252-3.273.656-3.58.471-7.082-1.609-6.754-1.498.248-2.385 2.455-2.781 5.441z"/></g><path fill="none" stroke="#434347" stroke-width="2" stroke-miterlimit="10" d="M127.704 94.063c-1.041 3.248-3.188 4.945-5.184 4.967 2.941-6.744.738-13.797-7.076-12.807-5.141.664-9.49 4.283-10.078 10.529-.018.186-.02.355-.031.533-1.732 4.613-4.615 5.762-6.512 5.98-2.85.307-3.959-1.881-3.586-5.971 6.113-2.543 9.678-7.242 10.016-12.816.424-6.818-5.816-8.896-10.051-5.676-3.619 2.752-5.545 8.84-5.977 14.98-.137 1.99-.148 3.82.002 5.455-.033.025-.074.043-.088.086-1.725 4.787-4.668 5.957-6.592 6.18-2.85.307-3.959-1.879-3.586-5.969 6.113-2.543 9.678-7.244 10.016-12.818.424-6.818-5.816-8.895-10.051-5.676-3.619 2.752-5.545 8.842-5.977 14.982-.137 1.979-.146 3.799 0 5.426a.278.278 0 0 0-.164.168c-1.602 4.43-5.178 5.941-7.562 6.227-3.012.373-4.854-.354-5.367-2.535 4.813.061 8.452-1.928 9.464-5.088 1.299-3.537-1.047-7.297-6.484-6.633-5.908.729-9.974 5.088-9.94 10.748-.003.008-.014.01-.017.02-.824 2.664-2.702 5.389-4.026 5.656-2.314.488-.38-6.156.083-8.984.553-3.395-.555-5.58-4.228-5.074-2.337.322-4.666 2.258-6.049 3.639a207.331 207.331 0 0 1 1.919-12.637c-.095-1.307-5.451-1.293-6.773-.09-1.097 6.869-2.937 19.453-4.063 28.58-.242 1.949 6.902.412 6.984-.535.346-3.363.831-7.258 1.377-11.629.912-1.102 2.066-1.984 2.848-2.176 1.152-.287 1.35.537 1.124 1.674-.147.785-.933 5.273-.933 7.443.01 2.549 1.018 4.92 5.233 4.041 3.513-.738 5.759-3.518 7.224-6.375 1.305 2.904 4.453 4.822 9.898 4.105 4.354-.563 7.7-2.58 10.104-7.125 1.004 3.078 3.094 4.84 6.82 4.668 5.125-.221 7.721-3.047 9.496-6.771 1.02 3 3.105 4.703 6.779 4.533 4.723-.201 7.301-2.621 9.064-5.914 1.133 3.289 4.213 4.215 7.813 3.721 2.797-.385 5.311-1.582 7.162-3.58 3.01-.072 6.748-.715 8.9-6.709.188-.493-1.718-1.378-1.931-.753zm-30.893-7.574c.588-2.545 1.318-4.645 2.195-4.766 1.043-.145 1.094 2.4.48 5.037-.604 2.422-2.127 5.564-4.004 6.76.268-2.078.892-4.973 1.329-7.031zm-16.275 2.24c.586-2.547 1.318-4.646 2.195-4.766 1.043-.145 1.094 2.398.48 5.035-.604 2.422-2.127 5.566-4.004 6.76.268-2.078.891-4.97 1.329-7.029zm-17.738 8.902c.637-.002.896.645.761 1.512-.192 1.389-1.429 3.217-3.861 3.467.253-2.799 1.569-4.981 3.1-4.979zm53.87-.646c-1.414.236-2.092 2.115-1.252 3.273-.359.477-.867.801-1.408.875-2.422.334-2.059-2.906-1.73-5.461.396-2.986 1.283-5.193 2.781-5.441 2.08-.328 2.266 3.174 1.609 6.754z"/><linearGradient id="f" gradientUnits="userSpaceOnUse" x1="94.711" y1="31.413" x2="107.517" y2="31.413"><stop offset="0" stop-color="#f79d2a"/><stop offset="1" stop-color="#ffcd2e"/></linearGradient><path opacity=".5" fill="none" stroke="url(#f)" stroke-width="4" stroke-linecap="round" stroke-miterlimit="10" d="M96.711 19.586s12.188 5.536 7.887 23.653"/><linearGradient id="g" gradientUnits="userSpaceOnUse" x1="106.338" y1="25.758" x2="116.658" y2="25.758"><stop offset="0" stop-color="#f79d2a"/><stop offset="1" stop-color="#ffcd2e"/></linearGradient><path opacity=".5" fill="none" stroke="url(#g)" stroke-width="4" stroke-linecap="round" stroke-miterlimit="10" d="M108.338 17.271s8.746 3.974 5.66 16.975"/><linearGradient id="h" gradientUnits="userSpaceOnUse" x1="663.971" y1="313.562" x2="676.778" y2="313.562" gradientTransform="rotate(-177.44 345.305 195.795)"><stop offset="0" stop-color="#f79d2a"/><stop offset="1" stop-color="#ffcd2e"/></linearGradient><path opacity=".5" fill="none" stroke="url(#h)" stroke-width="4" stroke-linecap="round" stroke-miterlimit="10" d="M29.621 75.852s-11.934-6.068-6.838-23.979"/><linearGradient id="i" gradientUnits="userSpaceOnUse" x1="675.599" y1="307.907" x2="685.918" y2="307.907" gradientTransform="rotate(-177.44 345.305 195.795)"><stop offset="0" stop-color="#f79d2a"/><stop offset="1" stop-color="#ffcd2e"/></linearGradient><path opacity=".5" fill="none" stroke="url(#i)" stroke-width="4" stroke-linecap="round" stroke-miterlimit="10" d="M17.903 77.653s-8.562-4.354-4.907-17.207"/></svg>