<svg xmlns="http://www.w3.org/2000/svg" width="30" height="30" viewBox="0 0 30 30"><path fill="#3F3F3F" d="M22.5 30a7.466 7.466 0 0 1-4.57-1.563c-.938.195-1.934.313-2.93.313-7.598 0-13.75-6.152-13.75-13.75 0-.996.117-1.992.313-2.93A7.466 7.466 0 0 1 0 7.5C0 3.359 3.359 0 7.5 0c1.719 0 3.301.586 4.57 1.563A14.432 14.432 0 0 1 15 1.25c7.598 0 13.75 6.152 13.75 13.75 0 .996-.117 1.993-.313 2.93A7.47 7.47 0 0 1 30 22.5c0 4.141-3.359 7.5-7.5 7.5zm-5.664-16.934l-2.031-.469c-1.484-.352-2.598-.605-2.598-1.738 0-1.035 1.094-1.504 2.813-1.504 3.066 0 3.125 2.246 5.02 2.246 1.27 0 2.031-.996 2.031-2.129 0-2.246-3.73-3.711-7.422-3.711-3.379 0-7.305 1.465-7.305 5.43 0 3.281 2.188 4.453 5.039 5.137l2.852.703c1.738.43 2.813.625 2.813 1.875 0 .996-1.113 1.758-2.832 1.758-3.613 0-3.809-3.008-5.898-3.008-1.367 0-1.973.977-1.973 2.051 0 2.402 3.672 4.355 8.066 4.355 3.672 0 7.5-1.836 7.5-5.801-.001-3.398-3.302-4.57-6.075-5.195z"/></svg>