<svg xmlns="http://www.w3.org/2000/svg" width="37.513" height="21.403" viewBox="0 0 37.513 21.403" class="demo-svg"><path fill="#3F3F3F" d="M34.53 7.29c-3.789 5.039-4.199 4.57-1.074 7.48 3.008 2.793 3.633 4.141 3.73 4.316 0 0 1.25 2.188-1.387 2.207l-5 .078c-1.074.215-2.5-.762-2.5-.762-1.875-1.289-3.633-4.629-5-4.199 0 0-1.406.449-1.367 3.457.02.645-.293.996-.293.996s-.352.371-1.035.43h-2.246c-4.941.313-9.297-4.238-9.297-4.238S4.296 12.134.116 2.31c-.273-.645.02-.957.02-.957S.429.982 1.249.982L6.601.943c.507.078.859.351.859.351s.313.215.469.625c.879 2.188 2.012 4.18 2.012 4.18 1.953 4.023 3.281 4.707 4.043 4.297 0 0 .996-.605.781-5.469-.078-1.758-.566-2.559-.566-2.559-.449-.605-1.289-.781-1.66-.84-.293-.039.195-.742.84-1.055.957-.469 2.656-.488 4.668-.469 1.582.02 2.031.117 2.637.254 1.855.449 1.23 2.168 1.23 6.309 0 1.328-.254 3.184.703 3.789.41.273 1.426.039 3.926-4.219 0 0 1.172-2.031 2.09-4.395.156-.43.488-.605.488-.605s.313-.176.742-.117l5.625-.039c1.699-.215 1.973.566 1.973.566.292.802-.626 2.677-2.931 5.743z"/></svg>